<?xml version="1.0" encoding="UTF-8" standalone="no"?>
<svg
   width="11"
   height="11"
   version="1.1"
   id="svg3710"
   sodipodi:docname="audio-volume-muted-symbolic.svg"
   inkscape:version="1.2.2 (b0a8486541, 2022-12-01)"
   xmlns:inkscape="http://www.inkscape.org/namespaces/inkscape"
   xmlns:sodipodi="http://sodipodi.sourceforge.net/DTD/sodipodi-0.dtd"
   xmlns="http://www.w3.org/2000/svg"
   xmlns:svg="http://www.w3.org/2000/svg">
  <defs
     id="defs3714" />
  <sodipodi:namedview
     id="namedview3712"
     pagecolor="#ffffff"
     bordercolor="#000000"
     borderopacity="0.25"
     inkscape:showpageshadow="2"
     inkscape:pageopacity="0.0"
     inkscape:pagecheckerboard="0"
     inkscape:deskcolor="#d1d1d1"
     showgrid="false"
     inkscape:zoom="36.583333"
     inkscape:cx="1.6810934"
     inkscape:cy="4.1002278"
     inkscape:window-width="1920"
     inkscape:window-height="1058"
     inkscape:window-x="0"
     inkscape:window-y="22"
     inkscape:window-maximized="1"
     inkscape:current-layer="svg3710" />
  <path
     style="opacity:0.4;fill:#e5759b;fill-opacity:1;stroke-width:0.611112"
     d="M 0.859375,0 0,0.859375 2.3179254,3.1820746 1.8333334,3.6666666 H 0 V 7.3333337 H 1.8333334 L 4.8888891,10.388888 V 5.7530374 l 1.2222214,1.2222232 v 0.9691836 c 0,0 0.2887819,-0.102465 0.6349827,-0.334202 L 7.5780166,8.4421656 C 7.1481883,8.7551222 6.6566709,9.0058133 6.1111105,9.1666663 V 10.388888 C 6.9686408,10.192608 7.7590568,9.8074702 8.424262,9.2884121 L 10.140625,11 11,10.140625 9.3027341,8.4385851 8.4576822,7.5935332 7.6018877,6.7377398 6.1111105,5.2469628 4.8888891,4.0247398 3.1820746,2.3179254 Z M 4.8888891,0.61111116 4.0462241,1.4537761 4.8888891,2.296441 Z m 1.2222214,0 V 1.8333334 C 7.86401,2.3501562 9.1666663,3.7050812 9.1666663,5.5 c 0,0.3290716 -0.057321,0.6375292 -0.1396483,0.9345699 L 9.96875,7.3763019 C 10.235531,6.7970474 10.38889,6.1652646 10.38889,5.5 c 0,-2.3746006 -1.8977755,-4.3441262 -4.2777795,-4.88888884 z m 0,2.44444444 V 3.5186633 L 7.9348962,5.3424479 C 7.8316502,3.6342614 6.1111105,3.0555556 6.1111105,3.0555556 Z"
     id="path3708" />
</svg>
