<?xml version="1.0" encoding="UTF-8" standalone="no"?>
<svg
   width="24"
   height="24"
   version="1.1"
   id="svg3710"
   sodipodi:docname="audio-volume-muted-symbolic.svg"
   inkscape:version="1.2 (dc2aedaf03, 2022-05-15)"
   xmlns:inkscape="http://www.inkscape.org/namespaces/inkscape"
   xmlns:sodipodi="http://sodipodi.sourceforge.net/DTD/sodipodi-0.dtd"
   xmlns="http://www.w3.org/2000/svg"
   xmlns:svg="http://www.w3.org/2000/svg">
  <defs
     id="defs3714" />
  <sodipodi:namedview
     id="namedview3712"
     pagecolor="#ffffff"
     bordercolor="#000000"
     borderopacity="0.25"
     inkscape:showpageshadow="2"
     inkscape:pageopacity="0.0"
     inkscape:pagecheckerboard="0"
     inkscape:deskcolor="#d1d1d1"
     showgrid="false"
     inkscape:zoom="25.868323"
     inkscape:cx="15.907487"
     inkscape:cy="8.6978967"
     inkscape:window-width="1920"
     inkscape:window-height="1058"
     inkscape:window-x="0"
     inkscape:window-y="22"
     inkscape:window-maximized="1"
     inkscape:current-layer="svg3710" />
  <path
     style="opacity:0.35;fill:#0e1720;fill-opacity:1;stroke-width:0.722223"
     d="M 6.015625,5 5,6.015625 7.7393664,8.7606336 7.1666667,9.3333333 H 5 v 4.3333337 h 2.1666667 l 3.6111113,3.61111 v -5.478733 l 1.444444,1.444446 v 1.145399 c 0,0 0.341287,-0.121095 0.750434,-0.394966 l 0.983182,0.983182 c -0.507979,0.369857 -1.088863,0.666129 -1.733616,0.856228 v 1.444444 c 1.013444,-0.231968 1.947572,-0.687131 2.733724,-1.300563 L 16.984375,18 18,16.984375 15.99414,14.972873 14.995443,13.974175 13.984049,12.962783 12.222222,11.200956 10.777778,9.7565107 8.7606336,7.7393664 Z M 10.777778,5.7222223 9.7819011,6.718099 10.777778,7.7139757 Z m 1.444444,0 V 7.1666667 C 14.29383,7.7774573 15.833333,9.3787323 15.833333,11.5 c 0,0.388903 -0.06775,0.753444 -0.165039,1.104492 l 1.112956,1.112956 c 0.315287,-0.684574 0.496528,-1.431226 0.496528,-2.217448 0,-2.8063461 -2.242825,-5.1339673 -5.055556,-5.7777777 z m 0,2.8888888 v 0.5473091 l 2.155382,2.1553818 C 14.255586,9.2950362 12.222222,8.6111111 12.222222,8.6111111 Z"
     id="path3708" />
</svg>
