<?xml version="1.0" encoding="UTF-8" standalone="no"?>
<svg
   width="24"
   height="24"
   version="1.1"
   id="svg7"
   sodipodi:docname="pause.svg"
   inkscape:version="1.2 (dc2aedaf03, 2022-05-15)"
   xmlns:inkscape="http://www.inkscape.org/namespaces/inkscape"
   xmlns:sodipodi="http://sodipodi.sourceforge.net/DTD/sodipodi-0.dtd"
   xmlns="http://www.w3.org/2000/svg"
   xmlns:svg="http://www.w3.org/2000/svg">
  <sodipodi:namedview
     id="namedview9"
     pagecolor="#ffffff"
     bordercolor="#000000"
     borderopacity="0.25"
     inkscape:showpageshadow="2"
     inkscape:pageopacity="0.0"
     inkscape:pagecheckerboard="0"
     inkscape:deskcolor="#d1d1d1"
     showgrid="false"
     inkscape:zoom="25.868323"
     inkscape:cx="16.526004"
     inkscape:cy="12.331685"
     inkscape:window-width="1920"
     inkscape:window-height="1058"
     inkscape:window-x="0"
     inkscape:window-y="22"
     inkscape:window-maximized="1"
     inkscape:current-layer="svg7" />
  <defs
     id="defs3">
    <style
       id="current-color-scheme"
       type="text/css">
   .ColorScheme-Text { color:#5c616c; } .ColorScheme-Highlight { color:#367bf0; } .ColorScheme-NeutralText { color:#ffcc44; } .ColorScheme-PositiveText { color:#3db47e; } .ColorScheme-NegativeText { color:#dd4747; }
  </style>
  </defs>
  <path
     style="fill:#0e1720;fill-opacity:0.67173;stroke-width:0.9375"
     class="ColorScheme-Text"
     d="m 12,4.5 c -4.155,0 -7.5,3.345 -7.5,7.5 0,4.155 3.345,7.5 7.5,7.5 4.155,0 7.5,-3.345 7.5,-7.5 0,-4.155 -3.345,-7.5 -7.5,-7.5 z m -1.875,4.6875 c 0.519375,0 0.9375,0.83625 0.9375,1.875 v 1.875 c 0,1.03875 -0.418125,1.875 -0.9375,1.875 -0.519375,0 -0.9375,-0.83625 -0.9375,-1.875 v -1.875 c 0,-1.03875 0.418125,-1.875 0.9375,-1.875 z m 3.75,0 c 0.519375,0 0.9375,0.83625 0.9375,1.875 v 1.875 c 0,1.03875 -0.418125,1.875 -0.9375,1.875 -0.519375,0 -0.9375,-0.83625 -0.9375,-1.875 v -1.875 c 0,-1.03875 0.418125,-1.875 0.9375,-1.875 z"
     id="path5" />
</svg>
